<mxfile host="app.diagrams.net" modified="2020-11-06T03:53:11.928Z" agent="5.0 (Macintosh; Intel Mac OS X 10_15_1) AppleWebKit/537.36 (KHTML, like Gecko) Chrome/86.0.4240.183 Safari/537.36" etag="jPk4fzSBM6_ffSvDa0y7" version="13.8.9-1" type="github">
  <diagram id="C5RBs43oDa-KdzZeNtuy" name="Page-1">
    <mxGraphModel dx="1615" dy="426" grid="1" gridSize="10" guides="1" tooltips="1" connect="1" arrows="1" fold="1" page="1" pageScale="1" pageWidth="827" pageHeight="1169" math="0" shadow="0">
      <root>
        <mxCell id="WIyWlLk6GJQsqaUBKTNV-0" />
        <mxCell id="WIyWlLk6GJQsqaUBKTNV-1" parent="WIyWlLk6GJQsqaUBKTNV-0" />
        <mxCell id="dpUTiGBEQGTl2xIY1mlT-2" value="bme-trade-process-task-svc" style="swimlane;startSize=20;" vertex="1" parent="WIyWlLk6GJQsqaUBKTNV-1">
          <mxGeometry x="190" y="180" width="270" height="1140" as="geometry" />
        </mxCell>
        <mxCell id="dpUTiGBEQGTl2xIY1mlT-5" value="初选" style="rounded=1;whiteSpace=wrap;html=1;" vertex="1" parent="dpUTiGBEQGTl2xIY1mlT-2">
          <mxGeometry x="85" y="40" width="100" height="40" as="geometry" />
        </mxCell>
        <mxCell id="dpUTiGBEQGTl2xIY1mlT-6" value="再次塞选" style="rounded=1;whiteSpace=wrap;html=1;" vertex="1" parent="dpUTiGBEQGTl2xIY1mlT-2">
          <mxGeometry x="85" y="195" width="100" height="50" as="geometry" />
        </mxCell>
        <mxCell id="dpUTiGBEQGTl2xIY1mlT-55" style="edgeStyle=orthogonalEdgeStyle;rounded=0;orthogonalLoop=1;jettySize=auto;html=1;entryX=0.5;entryY=0;entryDx=0;entryDy=0;entryPerimeter=0;" edge="1" parent="dpUTiGBEQGTl2xIY1mlT-2" source="dpUTiGBEQGTl2xIY1mlT-17" target="dpUTiGBEQGTl2xIY1mlT-54">
          <mxGeometry relative="1" as="geometry" />
        </mxCell>
        <mxCell id="dpUTiGBEQGTl2xIY1mlT-17" value="开始自动完单" style="rounded=1;whiteSpace=wrap;html=1;" vertex="1" parent="dpUTiGBEQGTl2xIY1mlT-2">
          <mxGeometry x="85" y="300" width="100" height="40" as="geometry" />
        </mxCell>
        <mxCell id="dpUTiGBEQGTl2xIY1mlT-44" style="edgeStyle=orthogonalEdgeStyle;rounded=0;orthogonalLoop=1;jettySize=auto;html=1;entryX=0.5;entryY=0;entryDx=0;entryDy=0;" edge="1" parent="dpUTiGBEQGTl2xIY1mlT-2" source="dpUTiGBEQGTl2xIY1mlT-40" target="dpUTiGBEQGTl2xIY1mlT-41">
          <mxGeometry relative="1" as="geometry" />
        </mxCell>
        <mxCell id="dpUTiGBEQGTl2xIY1mlT-40" value="订单完单" style="rounded=1;whiteSpace=wrap;html=1;" vertex="1" parent="dpUTiGBEQGTl2xIY1mlT-2">
          <mxGeometry x="77.5" y="940" width="115" height="40" as="geometry" />
        </mxCell>
        <mxCell id="dpUTiGBEQGTl2xIY1mlT-46" style="edgeStyle=orthogonalEdgeStyle;rounded=0;orthogonalLoop=1;jettySize=auto;html=1;entryX=0.5;entryY=0;entryDx=0;entryDy=0;entryPerimeter=0;" edge="1" parent="dpUTiGBEQGTl2xIY1mlT-2" source="dpUTiGBEQGTl2xIY1mlT-41" target="dpUTiGBEQGTl2xIY1mlT-45">
          <mxGeometry relative="1" as="geometry" />
        </mxCell>
        <mxCell id="dpUTiGBEQGTl2xIY1mlT-41" value="广播完单事件" style="rounded=1;whiteSpace=wrap;html=1;" vertex="1" parent="dpUTiGBEQGTl2xIY1mlT-2">
          <mxGeometry x="77.5" y="1010" width="115" height="40" as="geometry" />
        </mxCell>
        <mxCell id="dpUTiGBEQGTl2xIY1mlT-45" value="结束" style="strokeWidth=2;html=1;shape=mxgraph.flowchart.terminator;whiteSpace=wrap;" vertex="1" parent="dpUTiGBEQGTl2xIY1mlT-2">
          <mxGeometry x="85" y="1080" width="100" height="40" as="geometry" />
        </mxCell>
        <mxCell id="dpUTiGBEQGTl2xIY1mlT-54" value="订单状态是否为10和12" style="strokeWidth=2;html=1;shape=mxgraph.flowchart.decision;whiteSpace=wrap;" vertex="1" parent="dpUTiGBEQGTl2xIY1mlT-2">
          <mxGeometry x="85" y="380" width="100" height="60" as="geometry" />
        </mxCell>
        <mxCell id="dpUTiGBEQGTl2xIY1mlT-56" style="edgeStyle=orthogonalEdgeStyle;rounded=0;orthogonalLoop=1;jettySize=auto;html=1;entryX=0;entryY=0.5;entryDx=0;entryDy=0;entryPerimeter=0;exitX=0;exitY=0.5;exitDx=0;exitDy=0;exitPerimeter=0;" edge="1" parent="dpUTiGBEQGTl2xIY1mlT-2" source="dpUTiGBEQGTl2xIY1mlT-54" target="dpUTiGBEQGTl2xIY1mlT-45">
          <mxGeometry relative="1" as="geometry">
            <mxPoint x="60" y="690" as="targetPoint" />
            <Array as="points">
              <mxPoint x="40" y="410" />
              <mxPoint x="40" y="1100" />
            </Array>
          </mxGeometry>
        </mxCell>
        <mxCell id="dpUTiGBEQGTl2xIY1mlT-76" value="否" style="edgeLabel;html=1;align=center;verticalAlign=middle;resizable=0;points=[];" vertex="1" connectable="0" parent="dpUTiGBEQGTl2xIY1mlT-56">
          <mxGeometry x="-0.9167" y="-1" relative="1" as="geometry">
            <mxPoint as="offset" />
          </mxGeometry>
        </mxCell>
        <mxCell id="dpUTiGBEQGTl2xIY1mlT-61" value="是否有未支付的额外费用账单、入账记录" style="strokeWidth=2;html=1;shape=mxgraph.flowchart.decision;whiteSpace=wrap;" vertex="1" parent="dpUTiGBEQGTl2xIY1mlT-2">
          <mxGeometry x="85" y="590" width="100" height="60" as="geometry" />
        </mxCell>
        <mxCell id="dpUTiGBEQGTl2xIY1mlT-3" value="bill-micro-svc" style="swimlane;startSize=20;" vertex="1" parent="WIyWlLk6GJQsqaUBKTNV-1">
          <mxGeometry x="460" y="179" width="240" height="1141" as="geometry" />
        </mxCell>
        <mxCell id="dpUTiGBEQGTl2xIY1mlT-59" style="edgeStyle=orthogonalEdgeStyle;rounded=0;orthogonalLoop=1;jettySize=auto;html=1;exitX=0.5;exitY=1;exitDx=0;exitDy=0;entryX=0.5;entryY=0;entryDx=0;entryDy=0;" edge="1" parent="dpUTiGBEQGTl2xIY1mlT-3" source="dpUTiGBEQGTl2xIY1mlT-48" target="dpUTiGBEQGTl2xIY1mlT-49">
          <mxGeometry relative="1" as="geometry" />
        </mxCell>
        <mxCell id="dpUTiGBEQGTl2xIY1mlT-48" value="获取账单记录" style="rounded=1;whiteSpace=wrap;html=1;absoluteArcSize=1;arcSize=14;strokeWidth=2;" vertex="1" parent="dpUTiGBEQGTl2xIY1mlT-3">
          <mxGeometry x="70" y="430" width="100" height="40" as="geometry" />
        </mxCell>
        <mxCell id="dpUTiGBEQGTl2xIY1mlT-49" value="获取入账记录" style="rounded=1;whiteSpace=wrap;html=1;absoluteArcSize=1;arcSize=14;strokeWidth=2;" vertex="1" parent="dpUTiGBEQGTl2xIY1mlT-3">
          <mxGeometry x="70" y="500" width="100" height="40" as="geometry" />
        </mxCell>
        <mxCell id="dpUTiGBEQGTl2xIY1mlT-75" style="edgeStyle=orthogonalEdgeStyle;rounded=0;orthogonalLoop=1;jettySize=auto;html=1;entryX=0.699;entryY=-0.004;entryDx=0;entryDy=0;entryPerimeter=0;" edge="1" parent="dpUTiGBEQGTl2xIY1mlT-3" source="dpUTiGBEQGTl2xIY1mlT-50" target="dpUTiGBEQGTl2xIY1mlT-51">
          <mxGeometry relative="1" as="geometry">
            <Array as="points">
              <mxPoint x="140" y="671" />
              <mxPoint x="140" y="671" />
            </Array>
          </mxGeometry>
        </mxCell>
        <mxCell id="dpUTiGBEQGTl2xIY1mlT-50" value="作废额外费用账单、入账记录" style="rounded=1;whiteSpace=wrap;html=1;absoluteArcSize=1;arcSize=14;strokeWidth=2;" vertex="1" parent="dpUTiGBEQGTl2xIY1mlT-3">
          <mxGeometry x="70" y="601" width="100" height="40" as="geometry" />
        </mxCell>
        <mxCell id="dpUTiGBEQGTl2xIY1mlT-72" style="edgeStyle=orthogonalEdgeStyle;rounded=0;orthogonalLoop=1;jettySize=auto;html=1;" edge="1" parent="dpUTiGBEQGTl2xIY1mlT-3" source="dpUTiGBEQGTl2xIY1mlT-51" target="dpUTiGBEQGTl2xIY1mlT-52">
          <mxGeometry relative="1" as="geometry" />
        </mxCell>
        <mxCell id="dpUTiGBEQGTl2xIY1mlT-51" value="结清现账单、入账记录" style="rounded=1;whiteSpace=wrap;html=1;absoluteArcSize=1;arcSize=14;strokeWidth=2;" vertex="1" parent="dpUTiGBEQGTl2xIY1mlT-3">
          <mxGeometry x="70" y="761" width="100" height="40" as="geometry" />
        </mxCell>
        <mxCell id="dpUTiGBEQGTl2xIY1mlT-52" value="入账" style="rounded=1;whiteSpace=wrap;html=1;absoluteArcSize=1;arcSize=14;strokeWidth=2;" vertex="1" parent="dpUTiGBEQGTl2xIY1mlT-3">
          <mxGeometry x="70" y="851" width="100" height="40" as="geometry" />
        </mxCell>
        <mxCell id="dpUTiGBEQGTl2xIY1mlT-7" style="edgeStyle=orthogonalEdgeStyle;rounded=0;orthogonalLoop=1;jettySize=auto;html=1;entryX=0;entryY=0.5;entryDx=0;entryDy=0;exitX=1;exitY=0.5;exitDx=0;exitDy=0;" edge="1" parent="WIyWlLk6GJQsqaUBKTNV-1" source="dpUTiGBEQGTl2xIY1mlT-9" target="dpUTiGBEQGTl2xIY1mlT-5">
          <mxGeometry relative="1" as="geometry">
            <mxPoint x="140" y="240" as="sourcePoint" />
          </mxGeometry>
        </mxCell>
        <mxCell id="dpUTiGBEQGTl2xIY1mlT-20" value="&lt;span style=&quot;color: rgba(0 , 0 , 0 , 0) ; font-family: monospace ; font-size: 0px ; background-color: rgb(248 , 249 , 250)&quot;&gt;%3CmxGraphModel%3E%3Croot%3E%3CmxCell%20id%3D%220%22%2F%3E%3CmxCell%20id%3D%221%22%20parent%3D%220%22%2F%3E%3CmxCell%20id%3D%222%22%20value%3D%22%E6%B6%88%E8%B4%B9%E5%B0%8Fb%E8%AE%A2%E5%8D%95%26lt%3Bbr%26gt%3B%E2%80%9C%E5%8F%B8%E6%9C%BA%E5%AE%8C%E5%8D%95%E2%80%9D%E4%B8%8E%E2%80%9C%E7%8E%B0%E9%87%91%E7%BB%93%E6%B8%85%E2%80%9D%E4%BA%8B%E4%BB%B6%26lt%3Bbr%26gt%3B%EF%BC%88%E5%8D%B3%E8%AE%A2%E5%8D%95%E7%8A%B6%E6%80%81%E4%B8%BA10%E5%92%8C12%EF%BC%89%22%20style%3D%22edgeLabel%3Bhtml%3D1%3Balign%3Dcenter%3BverticalAlign%3Dmiddle%3Bresizable%3D0%3Bpoints%3D%5B%5D%3B%22%20vertex%3D%221%22%20connectable%3D%220%22%20parent%3D%221%22%3E%3CmxGeometry%20x%3D%22193.33333333333348%22%20y%3D%22238.9999999999999%22%20as%3D%22geometry%22%2F%3E%3C%2FmxCell%3E%3C%2Froot%3E%3C%2FmxGraphModel%3E&lt;/span&gt;" style="edgeLabel;html=1;align=center;verticalAlign=middle;resizable=0;points=[];" vertex="1" connectable="0" parent="dpUTiGBEQGTl2xIY1mlT-7">
          <mxGeometry x="-0.2867" y="-2" relative="1" as="geometry">
            <mxPoint as="offset" />
          </mxGeometry>
        </mxCell>
        <mxCell id="dpUTiGBEQGTl2xIY1mlT-27" value="消费ORDER_COMMON_EVENT" style="edgeLabel;html=1;align=center;verticalAlign=middle;resizable=0;points=[];" vertex="1" connectable="0" parent="dpUTiGBEQGTl2xIY1mlT-7">
          <mxGeometry x="-0.2039" y="2" relative="1" as="geometry">
            <mxPoint x="23.17" as="offset" />
          </mxGeometry>
        </mxCell>
        <mxCell id="dpUTiGBEQGTl2xIY1mlT-9" value="kafka" style="shape=parallelogram;html=1;strokeWidth=2;perimeter=parallelogramPerimeter;whiteSpace=wrap;rounded=1;arcSize=12;size=0.23;" vertex="1" parent="WIyWlLk6GJQsqaUBKTNV-1">
          <mxGeometry x="-140" y="210" width="100" height="60" as="geometry" />
        </mxCell>
        <mxCell id="dpUTiGBEQGTl2xIY1mlT-12" style="edgeStyle=orthogonalEdgeStyle;rounded=0;orthogonalLoop=1;jettySize=auto;html=1;exitX=1;exitY=0.25;exitDx=0;exitDy=0;" edge="1" parent="WIyWlLk6GJQsqaUBKTNV-1" source="dpUTiGBEQGTl2xIY1mlT-10">
          <mxGeometry relative="1" as="geometry">
            <mxPoint x="275" y="383" as="targetPoint" />
            <Array as="points">
              <mxPoint x="-46" y="383" />
              <mxPoint x="275" y="383" />
            </Array>
          </mxGeometry>
        </mxCell>
        <mxCell id="dpUTiGBEQGTl2xIY1mlT-26" value="消费&lt;span style=&quot;text-align: left&quot;&gt;ttl_order_auto_confirm_primary_election&lt;/span&gt;" style="edgeLabel;html=1;align=center;verticalAlign=middle;resizable=0;points=[];" vertex="1" connectable="0" parent="dpUTiGBEQGTl2xIY1mlT-12">
          <mxGeometry x="-0.0585" y="1" relative="1" as="geometry">
            <mxPoint as="offset" />
          </mxGeometry>
        </mxCell>
        <mxCell id="dpUTiGBEQGTl2xIY1mlT-18" style="edgeStyle=orthogonalEdgeStyle;rounded=0;orthogonalLoop=1;jettySize=auto;html=1;entryX=0;entryY=0.5;entryDx=0;entryDy=0;exitX=0.5;exitY=1;exitDx=0;exitDy=0;" edge="1" parent="WIyWlLk6GJQsqaUBKTNV-1" source="dpUTiGBEQGTl2xIY1mlT-10" target="dpUTiGBEQGTl2xIY1mlT-17">
          <mxGeometry relative="1" as="geometry" />
        </mxCell>
        <mxCell id="dpUTiGBEQGTl2xIY1mlT-10" value="rabbit-mq" style="shape=parallelogram;html=1;strokeWidth=2;perimeter=parallelogramPerimeter;whiteSpace=wrap;rounded=1;arcSize=12;size=0.23;" vertex="1" parent="WIyWlLk6GJQsqaUBKTNV-1">
          <mxGeometry x="-140" y="370" width="100" height="60" as="geometry" />
        </mxCell>
        <mxCell id="dpUTiGBEQGTl2xIY1mlT-11" style="edgeStyle=orthogonalEdgeStyle;rounded=0;orthogonalLoop=1;jettySize=auto;html=1;entryX=0.5;entryY=0;entryDx=0;entryDy=0;exitX=0.5;exitY=1;exitDx=0;exitDy=0;" edge="1" parent="WIyWlLk6GJQsqaUBKTNV-1" source="dpUTiGBEQGTl2xIY1mlT-5" target="dpUTiGBEQGTl2xIY1mlT-10">
          <mxGeometry relative="1" as="geometry">
            <Array as="points">
              <mxPoint x="325" y="310" />
              <mxPoint x="-90" y="310" />
            </Array>
          </mxGeometry>
        </mxCell>
        <mxCell id="dpUTiGBEQGTl2xIY1mlT-23" value="&lt;div style=&quot;text-align: left&quot;&gt;塞选状态为10和12的小B订单，放入到40分钟延迟队列&lt;br&gt;&lt;/div&gt;&lt;div style=&quot;text-align: left&quot;&gt;ttl_order_auto_confirm_primary_election&lt;br&gt;&lt;/div&gt;" style="edgeLabel;html=1;align=center;verticalAlign=middle;resizable=0;points=[];" vertex="1" connectable="0" parent="dpUTiGBEQGTl2xIY1mlT-11">
          <mxGeometry x="-0.0516" y="-1" relative="1" as="geometry">
            <mxPoint y="1" as="offset" />
          </mxGeometry>
        </mxCell>
        <mxCell id="dpUTiGBEQGTl2xIY1mlT-16" style="edgeStyle=orthogonalEdgeStyle;rounded=0;orthogonalLoop=1;jettySize=auto;html=1;exitX=0.003;exitY=0.9;exitDx=0;exitDy=0;exitPerimeter=0;entryX=1;entryY=1;entryDx=0;entryDy=0;" edge="1" parent="WIyWlLk6GJQsqaUBKTNV-1" source="dpUTiGBEQGTl2xIY1mlT-6" target="dpUTiGBEQGTl2xIY1mlT-10">
          <mxGeometry relative="1" as="geometry">
            <mxPoint x="274" y="420" as="sourcePoint" />
            <mxPoint x="-55" y="420" as="targetPoint" />
            <Array as="points" />
          </mxGeometry>
        </mxCell>
        <mxCell id="dpUTiGBEQGTl2xIY1mlT-29" value="塞选状态为&lt;span&gt;10和12订单，放入到47小时20分钟&lt;br&gt;延迟队列&lt;/span&gt;&lt;span style=&quot;font-size: 11px&quot;&gt;ttl_order_auto_confirm&lt;/span&gt;" style="edgeLabel;html=1;align=left;verticalAlign=middle;resizable=0;points=[];" vertex="1" connectable="0" parent="dpUTiGBEQGTl2xIY1mlT-16">
          <mxGeometry x="0.0976" y="-1" relative="1" as="geometry">
            <mxPoint x="-108.75" as="offset" />
          </mxGeometry>
        </mxCell>
        <mxCell id="dpUTiGBEQGTl2xIY1mlT-57" style="edgeStyle=orthogonalEdgeStyle;rounded=0;orthogonalLoop=1;jettySize=auto;html=1;entryX=0.5;entryY=0;entryDx=0;entryDy=0;exitX=1;exitY=0.5;exitDx=0;exitDy=0;exitPerimeter=0;" edge="1" parent="WIyWlLk6GJQsqaUBKTNV-1" source="dpUTiGBEQGTl2xIY1mlT-54" target="dpUTiGBEQGTl2xIY1mlT-48">
          <mxGeometry relative="1" as="geometry">
            <mxPoint x="325" y="630" as="sourcePoint" />
            <Array as="points">
              <mxPoint x="580" y="590" />
            </Array>
          </mxGeometry>
        </mxCell>
        <mxCell id="dpUTiGBEQGTl2xIY1mlT-74" value="是" style="edgeLabel;html=1;align=center;verticalAlign=middle;resizable=0;points=[];" vertex="1" connectable="0" parent="dpUTiGBEQGTl2xIY1mlT-57">
          <mxGeometry x="-0.7232" relative="1" as="geometry">
            <mxPoint as="offset" />
          </mxGeometry>
        </mxCell>
        <mxCell id="dpUTiGBEQGTl2xIY1mlT-62" style="edgeStyle=orthogonalEdgeStyle;rounded=0;orthogonalLoop=1;jettySize=auto;html=1;entryX=0.5;entryY=0;entryDx=0;entryDy=0;entryPerimeter=0;" edge="1" parent="WIyWlLk6GJQsqaUBKTNV-1" source="dpUTiGBEQGTl2xIY1mlT-49" target="dpUTiGBEQGTl2xIY1mlT-61">
          <mxGeometry relative="1" as="geometry" />
        </mxCell>
        <mxCell id="dpUTiGBEQGTl2xIY1mlT-68" style="edgeStyle=orthogonalEdgeStyle;rounded=0;orthogonalLoop=1;jettySize=auto;html=1;entryX=0;entryY=0.5;entryDx=0;entryDy=0;" edge="1" parent="WIyWlLk6GJQsqaUBKTNV-1" source="dpUTiGBEQGTl2xIY1mlT-61" target="dpUTiGBEQGTl2xIY1mlT-50">
          <mxGeometry relative="1" as="geometry" />
        </mxCell>
        <mxCell id="dpUTiGBEQGTl2xIY1mlT-69" value="是" style="edgeLabel;html=1;align=center;verticalAlign=middle;resizable=0;points=[];" vertex="1" connectable="0" parent="dpUTiGBEQGTl2xIY1mlT-68">
          <mxGeometry x="-0.4194" y="2" relative="1" as="geometry">
            <mxPoint as="offset" />
          </mxGeometry>
        </mxCell>
        <mxCell id="dpUTiGBEQGTl2xIY1mlT-70" style="edgeStyle=orthogonalEdgeStyle;rounded=0;orthogonalLoop=1;jettySize=auto;html=1;exitX=0.5;exitY=1;exitDx=0;exitDy=0;exitPerimeter=0;entryX=0.25;entryY=0;entryDx=0;entryDy=0;" edge="1" parent="WIyWlLk6GJQsqaUBKTNV-1" source="dpUTiGBEQGTl2xIY1mlT-61" target="dpUTiGBEQGTl2xIY1mlT-51">
          <mxGeometry relative="1" as="geometry" />
        </mxCell>
        <mxCell id="dpUTiGBEQGTl2xIY1mlT-71" value="否" style="edgeLabel;html=1;align=center;verticalAlign=middle;resizable=0;points=[];" vertex="1" connectable="0" parent="dpUTiGBEQGTl2xIY1mlT-70">
          <mxGeometry x="-0.7973" relative="1" as="geometry">
            <mxPoint as="offset" />
          </mxGeometry>
        </mxCell>
        <mxCell id="dpUTiGBEQGTl2xIY1mlT-73" style="edgeStyle=orthogonalEdgeStyle;rounded=0;orthogonalLoop=1;jettySize=auto;html=1;entryX=0.5;entryY=0;entryDx=0;entryDy=0;" edge="1" parent="WIyWlLk6GJQsqaUBKTNV-1" source="dpUTiGBEQGTl2xIY1mlT-52" target="dpUTiGBEQGTl2xIY1mlT-40">
          <mxGeometry relative="1" as="geometry" />
        </mxCell>
      </root>
    </mxGraphModel>
  </diagram>
</mxfile>
